<svg id="Layer_1" enable-background="new 0 0 512 512" height="512" viewBox="0 0 512 512" width="512" xmlns="http://www.w3.org/2000/svg"><g><g><g><path d="m337 431c-96.495 0-175-78.505-175-175s78.505-175 175-175 175 78.505 175 175-78.505 175-175 175z" fill="#1a1a1a"/></g></g><g><g><path d="m337 341.507c-47.148 0-85.507-38.358-85.507-85.507s38.358-85.508 85.507-85.508 85.507 38.358 85.507 85.508c0 47.148-38.359 85.507-85.507 85.507z" fill="#ff0059"/></g></g><path d="m337 66h-322c-8.284 0-15 6.716-15 15v350c0 8.284 6.716 15 15 15h322c8.284 0 15-6.716 15-15v-350c0-8.284-6.716-15-15-15z" fill="#4793ff"/><path d="m337 66h-161v380h161c8.284 0 15-6.716 15-15v-350c0-8.284-6.716-15-15-15z" fill="#525cdd"/><path d="m261.308 141.913-39.755-9.692c-4.471-1.088-9.197-.066-12.818 2.777-3.62 2.844-5.734 7.192-5.734 11.796v68.985c-8.253-4.56-17.73-7.164-27.808-7.164-31.812 0-57.692 25.881-57.692 57.692s25.881 57.691 57.692 57.691c31.018 0 56.385-24.607 57.632-55.324.104-.712.175-102.784.175-102.784l21.202 5.169c8.05 1.962 16.164-2.973 18.126-11.021s-2.972-16.163-11.02-18.125z" fill="#ffd845"/><g><path d="m273 385.999h-194c-8.284 0-15-6.716-15-15s6.716-15 15-15h194c8.284 0 15 6.716 15 15s-6.716 15-15 15z" fill="#454040"/></g><path d="m261.308 141.913-39.755-9.692c-4.471-1.088-9.197-.066-12.818 2.777-3.62 2.844-5.734 7.192-5.734 11.796v68.985c-8.032-4.438-17.224-7.023-27-7.158v115.372c30.649-.423 55.588-24.869 56.825-55.319.104-.712.175-102.784.175-102.784l21.202 5.169c8.05 1.962 16.164-2.973 18.126-11.021s-2.973-16.163-11.021-18.125z" fill="#ffb454"/><path d="m273 355.999h-97v30h97c8.284 0 15-6.716 15-15s-6.716-15-15-15z" fill="#2e2e2e"/></g></svg>