<svg id="Layer_2" viewBox="0 0 32 32" xmlns="http://www.w3.org/2000/svg" xmlns:xlink="http://www.w3.org/1999/xlink" data-name="Layer 2"><linearGradient id="New_Gradient_Swatch_3" gradientUnits="userSpaceOnUse" x1="9.405" x2="20.893" y1="26.007" y2="6.108" data-name="New Gradient Swatch 3"><stop offset="0" stop-color="#3cacb6"/><stop offset="1" stop-color="#8ccead"/></linearGradient><path d="m10 12v8c0 1.654-1.346 3-3 3h-2c-1.654 0-3-1.346-3-3v-8c0-1.654 1.346-3 3-3h2c1.654 0 3 1.346 3 3zm17.207-2.207c-.391-.391-1.023-.391-1.414 0-.391.39-.391 1.023 0 1.414 2.643 2.643 2.643 6.943 0 9.586-.391.391-.391 1.024 0 1.414.195.195.451.293.707.293s.512-.098.707-.293c3.422-3.422 3.422-8.992 0-12.414zm-2.5 2.5c-.391-.391-1.023-.391-1.414 0s-.391 1.024 0 1.414c.612.613.95 1.427.95 2.293s-.338 1.68-.95 2.293c-.391.39-.391 1.023 0 1.414.195.195.451.293.707.293s.512-.098.707-.293c.99-.99 1.536-2.307 1.536-3.707s-.546-2.717-1.536-3.707zm-4.686-6.328c-.612-.364-1.353-.377-1.979-.036l-6.695 3.651c.403.72.652 1.538.652 2.42v8c0 .882-.249 1.7-.652 2.42l6.695 3.651c.302.165.63.247.958.247.352 0 .703-.094 1.021-.283.612-.364.979-1.007.979-1.72v-16.63c0-.713-.366-1.356-.979-1.72z" fill="url(#New_Gradient_Swatch_3)"/></svg>