<svg clip-rule="evenodd" fill-rule="evenodd" stroke-linejoin="round" stroke-miterlimit="2" viewBox="0 0 32 32" xmlns="http://www.w3.org/2000/svg"><g transform="translate(-240 -96)"><circle cx="256" cy="112" fill="#1abc9c" r="14"/><g fill="#fff"><path d="m262.5 116.5v-9c0-.828-.672-1.5-1.5-1.5-.47 0-1.03 0-1.5 0-.828 0-1.5.672-1.5 1.5v9c0 .828.672 1.5 1.5 1.5h1.5c.828 0 1.5-.672 1.5-1.5z"/><path d="m254 116.5v-9c0-.828-.672-1.5-1.5-1.5-.47 0-1.03 0-1.5 0-.828 0-1.5.672-1.5 1.5v9c0 .828.672 1.5 1.5 1.5h1.5c.828 0 1.5-.672 1.5-1.5z"/></g></g></svg>