<svg id="Layer_1" height="512" viewBox="0 0 512 512" width="512" xmlns="http://www.w3.org/2000/svg" data-name="Layer 1"><path d="m144.615 165.82a29.054 29.054 0 0 0 -29.015 29.019v122.32a29.015 29.015 0 1 0 58.029 0v-122.32a29.054 29.054 0 0 0 -29.015-29.019zm218.906-12.8a16.521 16.521 0 0 0 -16.7 0l-153.281 88.51a16.711 16.711 0 0 0 0 28.939l153.28 88.511a16.842 16.842 0 0 0 8.351 2.259 16.751 16.751 0 0 0 16.7-16.729v-177.019a16.521 16.521 0 0 0 -8.35-14.47zm-107.521 342.98c-132.332 0-239.992-107.659-239.992-240s107.66-240 239.992-240 240 107.66 240 240-107.664 240-240 240zm0-496c141.159 0 255.99 114.84 255.99 256s-114.831 256-255.99 256-255.985-114.839-255.985-256 114.831-256 255.985-256z" fill="#5eac24" fill-rule="evenodd"/></svg>