<svg id="Layer_1" enable-background="new 0 0 512 512" height="512" viewBox="0 0 512 512" width="512" xmlns="http://www.w3.org/2000/svg"><g><path d="m506.19 363.044-94.01-84.134c-4.403-3.94-10.709-4.923-16.102-2.511s-8.864 7.77-8.861 13.678l.016 32.387c-27.534-4.088-52.374-19.454-68.321-42.824l-94.479-138.465c-37.415-54.843-99.388-87.585-165.78-87.585h-6.169c-28.94-.001-52.484 23.544-52.484 52.483s23.544 52.484 52.484 52.484h10.01c33.14 0 64.138 16.301 82.92 43.605l32.66 47.48 63.488 93.262c33.409 49.079 87.088 79.921 145.73 84.431l.014 30.507c.003 5.899 3.468 11.246 8.85 13.659 1.965.881 4.051 1.311 6.123 1.311 3.605 0 7.165-1.301 9.963-3.792l93.921-83.633c3.186-2.838 5.011-6.9 5.016-11.166s-1.81-8.332-4.989-11.177z" fill="#84e36b"/><g fill="#00cc71"><path d="m506.19 363.043-94.01-84.134c-4.403-3.94-10.709-4.923-16.102-2.511s-8.864 7.77-8.861 13.678l.016 32.387c-27.534-4.088-52.374-19.454-68.321-42.824l-86.472-126.731v176.595l9.123 13.402c33.409 49.079 87.088 79.921 145.73 84.431l.014 30.507c.003 5.899 3.468 11.246 8.85 13.659 1.965.881 4.051 1.311 6.123 1.311 3.604 0 7.165-1.301 9.962-3.792l93.921-83.633c3.187-2.838 5.012-6.9 5.017-11.166.004-4.267-1.811-8.333-4.99-11.179z"/><path d="m506.984 96.661-93.921-83.633c-4.406-3.923-10.703-4.894-16.085-2.482-5.382 2.413-8.847 7.76-8.85 13.659l-.015 30.508c-58.643 4.518-115.258 35.415-148.563 84.581l-87.368 128.98c-24.423 36.056-63.007 57.582-106.556 57.582-25.06 0-45.448 20.388-45.448 45.447v11.993c0 25.059 20.387 45.447 45.448 45.447h10.119c68.559 0 130.485-33.864 168.997-90.585l92.038-135.557c15.911-23.436 43.725-38.858 71.275-42.992l-.016 32.363c-.003 5.908 3.468 11.266 8.861 13.678s11.7 1.428 16.102-2.511l94.01-84.134c3.179-2.845 4.994-6.911 4.989-11.178-.006-4.267-1.831-8.329-5.017-11.166z"/><circle cx="232.439" cy="457.836" r="44.928"/></g><path d="m277.367 457.836c0-24.774-20.155-44.928-44.928-44.928v89.856c24.773 0 44.928-20.154 44.928-44.928z" fill="#009985"/><path d="m506.984 96.661-93.921-83.633c-4.406-3.923-10.704-4.894-16.086-2.482-5.382 2.413-8.847 7.76-8.85 13.659l-.015 30.508c-58.643 4.518-115.258 35.415-148.563 84.581l-7.11 10.496v177.03l84.339-124.218c15.911-23.436 43.725-38.857 71.275-42.992l-.015 32.363c-.003 5.908 3.468 11.266 8.861 13.678s11.7 1.428 16.102-2.51l94.01-84.134c3.179-2.845 4.994-6.911 4.989-11.178s-1.83-8.33-5.016-11.168z" fill="#009985"/></g></svg>