<svg id="Layer_1" enable-background="new 0 0 512 512" height="512" viewBox="0 0 512 512" width="512" xmlns="http://www.w3.org/2000/svg"><g clip-rule="evenodd" fill-rule="evenodd"><path d="m314.968 361.514v-64.285l-112.405 94.586 112.405 94.582v-64.285h83.098c54.643 0 99.24-44.588 99.24-99.24v-136.71c0-54.652-44.597-99.24-99.24-99.24h-40.681v60.607h40.681c21.181 0 38.634 17.443 38.634 38.633v136.71c0 21.195-17.453 38.642-38.634 38.642zm-120.174-338.878 112.41 94.582-112.41 94.582v-64.271h-83.093c-21.186 0-38.634 17.443-38.634 38.633v136.71c0 21.195 17.448 38.642 38.634 38.642h38.784v60.598h-38.784c-54.643 0-99.241-44.588-99.241-99.24v-136.71c0-54.652 44.597-99.24 99.241-99.24h83.093z" fill="#88c057"/><path d="m491.671 326.116c0 51.721-42.08 93.801-93.801 93.801h-85.239c-4.418 0-8.002 3.579-8.002 7.997v48.754l-94.875-79.832 94.875-79.828v48.749c0 4.422 3.584 8.002 8.002 8.002h85.239c26.261 0 47.628-21.372 47.628-47.642v-140.229c0-26.261-21.368-47.628-47.628-47.628h-33.73v-46.174h33.73c51.721 0 93.801 42.081 93.801 93.801zm-93.801-250.028h-41.727c-4.422 0-8.002 3.579-8.002 8.002v62.167c0 4.422 3.579 8.002 8.002 8.002h41.727c17.44 0 31.63 14.19 31.63 31.63v140.229c0 17.449-14.19 31.644-31.63 31.644h-77.238v-57.942c0-3.108-1.804-5.944-4.62-7.253-2.821-1.319-6.151-.876-8.529 1.135l-115.306 97.018c-1.804 1.521-2.849 3.758-2.849 6.118s1.046 4.601 2.849 6.122l115.306 97.018c1.469 1.239 3.297 1.879 5.148 1.879 1.149 0 2.298-.24 3.382-.749 2.816-1.309 4.62-4.14 4.62-7.248v-57.942h77.238c60.542 0 109.8-49.258 109.8-109.8v-140.23c-.001-60.538-49.259-109.8-109.801-109.8zm-251.959 343.829v-46.159h-31.785c-26.261 0-47.628-21.372-47.628-47.642v-140.228c0-26.261 21.368-47.628 47.628-47.628h85.235c4.417 0 8.001 3.579 8.001 7.997v48.74l94.88-79.828-94.88-79.833v48.754c0 4.418-3.584 7.997-8.001 7.997h-85.235c-51.721 0-93.797 42.081-93.797 93.801v140.229c0 51.721 42.076 93.801 93.797 93.801h31.785zm7.996-62.157h-39.782c-17.44 0-31.63-14.195-31.63-31.644v-140.228c0-17.44 14.19-31.63 31.63-31.63h77.238v57.928c0 3.113 1.799 5.943 4.62 7.253 2.821 1.309 6.146.867 8.529-1.131l115.31-97.022c1.799-1.521 2.849-3.758 2.849-6.118 0-2.359-1.05-4.601-2.849-6.122l-115.31-97.018c-2.383-2.011-5.708-2.449-8.529-1.13-2.821 1.309-4.62 4.14-4.62 7.248v57.942h-77.238c-60.542 0-109.795 49.263-109.795 109.8v140.229c0 60.542 49.253 109.8 109.795 109.8h39.782c4.422 0 8.002-3.579 8.002-8.001v-62.158c0-4.419-3.579-7.998-8.002-7.998z"/></g></svg>